<svg width="104" height="104" viewBox="0 0 104 104" fill="none" xmlns="http://www.w3.org/2000/svg">
<rect width="104" height="104" fill="white"/>
<path d="M29.1809 25.871C28.7668 25.9083 28.3752 26.1449 28.1495 26.4941L21.961 36.1206C21.8191 36.3437 21.7435 36.6083 21.7462 36.8727V46.4992C21.7462 47.2192 22.4013 47.8743 23.1214 47.8744H24.4966V75.3786C24.4966 76.8676 25.7141 78.1291 27.247 78.1291H76.7547C78.2876 78.1291 79.5051 76.8676 79.5051 75.3786V47.8744H80.8803C81.6003 47.8743 82.2554 47.2192 82.2555 46.4992V36.8727C82.2582 36.6083 82.1826 36.3437 82.0406 36.1206L75.8522 26.4941C75.6018 26.1108 75.1497 25.868 74.6918 25.871C59.5243 25.871 44.3394 25.871 29.1809 25.871ZM30.0619 28.6214H73.9398L78.3662 35.4975H25.6354L30.0619 28.6214ZM24.4966 38.2479H79.5051V45.1239H24.4966V38.2479ZM27.247 47.8744H76.7547V75.3786H27.247V47.8744ZM46.1562 52.6876C43.9794 52.6876 42.3744 54.6437 42.3744 56.8133C42.3744 58.9828 43.9794 60.9389 46.1562 60.9389H57.8455C60.0223 60.9389 61.6273 58.9828 61.6273 56.8133C61.6273 54.6437 60.0223 52.6876 57.8455 52.6876H46.1562ZM46.1562 55.438H57.8455C58.3352 55.438 58.8769 55.9353 58.8769 56.8133C58.8769 57.6912 58.3352 58.1885 57.8455 58.1885H46.1562C45.6664 58.1885 45.1248 57.6912 45.1248 56.8133C45.1248 55.9353 45.6664 55.438 46.1562 55.438Z" fill="#91C717"/>
</svg>
