<svg width="105" height="104" viewBox="0 0 105 104" fill="none" xmlns="http://www.w3.org/2000/svg">
<rect width="104" height="104" transform="translate(0.667969)" fill="white"/>
<path d="M29.4141 32.7645V58.392C29.4141 71.3245 40.0922 81.6467 52.6687 81.6467C65.4825 81.6467 75.9233 71.2058 75.9233 58.392V32.7645C75.9233 32.2899 75.686 31.8153 75.2114 31.6967L53.1433 22.4423C52.906 22.3236 52.55 22.3236 52.1941 22.4423L30.2446 31.6967C29.77 31.8153 29.4141 32.2899 29.4141 32.7645ZM31.787 33.595L52.6687 24.8152L73.5504 33.595V58.5107C73.5504 69.9007 64.1774 79.2738 52.6687 79.2738C41.7533 79.2738 31.787 70.4939 31.787 58.392V33.595Z" fill="#91C717"/>
<path d="M52.6694 77.3757C63.1103 77.3757 71.5341 68.9518 71.5341 58.5109V35.6122C71.5341 35.1377 71.2968 34.6631 70.8223 34.5444L53.144 27.0697C52.9067 26.9511 52.5508 26.9511 52.1948 27.0697L34.5166 34.5444C34.042 34.7817 33.8047 35.1377 33.8047 35.6122V58.3923C33.8047 68.8331 42.2286 77.3757 52.6694 77.3757ZM36.1776 36.4428L52.6694 29.4426L69.1612 36.4428V58.5109C69.1612 67.6467 61.8052 75.0027 52.6694 75.0027C43.5337 75.0027 36.1776 67.6467 36.1776 58.5109V36.4428Z" fill="#91C717"/>
<path d="M44.6006 55.0699L49.4651 55.7818L51.6007 60.1717C51.838 60.5276 52.1939 60.8836 52.6685 60.8836C53.1431 60.8836 53.499 60.6463 53.7363 60.1717L55.872 55.7818L60.7365 55.0699C61.211 54.9513 61.567 54.714 61.6856 54.2394C61.8043 53.7648 61.6856 53.2902 61.3297 53.0529L57.7703 49.6122L58.6008 44.7477C58.7195 44.2731 58.4822 43.7985 58.1262 43.5613C57.7703 43.324 57.2957 43.2053 56.8211 43.4426L52.6685 45.8155L48.3973 43.5613C48.0413 43.324 47.5667 43.4426 47.0922 43.6799C46.7362 43.9172 46.4989 44.3918 46.6176 44.8664L47.4481 49.7309L43.8887 53.1716C43.5328 53.5275 43.4141 54.0021 43.5328 54.358C43.7701 54.714 44.126 54.9513 44.6006 55.0699ZM49.5837 50.9173C49.821 50.68 49.9397 50.2054 49.9397 49.8495L49.4651 46.7647L52.1939 48.1885C52.5499 48.4257 52.9058 48.4257 53.2618 48.1885L55.9906 46.7647L55.516 49.8495C55.3974 50.2054 55.6347 50.68 55.872 50.9173L58.1262 53.0529L55.0414 53.5275C54.6855 53.5275 54.3296 53.8835 54.0923 54.1208L52.6685 56.9683L51.2448 54.2394C51.1261 53.8835 50.7702 53.6462 50.2956 53.6462L47.2108 53.1716L49.5837 50.9173Z" fill="#91C717"/>
</svg>
